<mxfile host="app.diagrams.net" agent="Mozilla/5.0 (X11; Ubuntu; Linux x86_64; rv:131.0) Gecko/20100101 Firefox/131.0" version="24.7.17">
  <diagram name="Page-1" id="jtobvCK7RKKWS_ZnrAjb">
    <mxGraphModel grid="1" page="1" gridSize="10" guides="1" tooltips="1" connect="1" arrows="1" fold="1" pageScale="1" pageWidth="850" pageHeight="1100" math="0" shadow="0">
      <root>
        <mxCell id="0" />
        <mxCell id="1" parent="0" />
        <mxCell id="uA8NmA-oKsk3m7tWYpye-2" style="edgeStyle=orthogonalEdgeStyle;rounded=0;orthogonalLoop=1;jettySize=auto;html=1;" edge="1" parent="1" source="uA8NmA-oKsk3m7tWYpye-1">
          <mxGeometry relative="1" as="geometry">
            <mxPoint x="135" y="120" as="targetPoint" />
          </mxGeometry>
        </mxCell>
        <mxCell id="uA8NmA-oKsk3m7tWYpye-1" value="Start" style="ellipse;whiteSpace=wrap;html=1;" vertex="1" parent="1">
          <mxGeometry x="80" y="10" width="110" height="70" as="geometry" />
        </mxCell>
        <mxCell id="uA8NmA-oKsk3m7tWYpye-4" style="edgeStyle=orthogonalEdgeStyle;rounded=0;orthogonalLoop=1;jettySize=auto;html=1;" edge="1" parent="1" source="uA8NmA-oKsk3m7tWYpye-3">
          <mxGeometry relative="1" as="geometry">
            <mxPoint x="135" y="220" as="targetPoint" />
          </mxGeometry>
        </mxCell>
        <mxCell id="uA8NmA-oKsk3m7tWYpye-3" value="Input n" style="shape=parallelogram;perimeter=parallelogramPerimeter;whiteSpace=wrap;html=1;fixedSize=1;" vertex="1" parent="1">
          <mxGeometry x="75" y="120" width="120" height="60" as="geometry" />
        </mxCell>
        <mxCell id="uA8NmA-oKsk3m7tWYpye-7" style="edgeStyle=orthogonalEdgeStyle;rounded=0;orthogonalLoop=1;jettySize=auto;html=1;entryX=0.5;entryY=0;entryDx=0;entryDy=0;" edge="1" parent="1" source="uA8NmA-oKsk3m7tWYpye-5" target="uA8NmA-oKsk3m7tWYpye-6">
          <mxGeometry relative="1" as="geometry" />
        </mxCell>
        <mxCell id="uA8NmA-oKsk3m7tWYpye-5" value="int i = 0" style="rounded=0;whiteSpace=wrap;html=1;" vertex="1" parent="1">
          <mxGeometry x="75" y="220" width="120" height="60" as="geometry" />
        </mxCell>
        <mxCell id="uA8NmA-oKsk3m7tWYpye-8" style="edgeStyle=orthogonalEdgeStyle;rounded=0;orthogonalLoop=1;jettySize=auto;html=1;" edge="1" parent="1" source="uA8NmA-oKsk3m7tWYpye-6">
          <mxGeometry relative="1" as="geometry">
            <mxPoint x="135" y="410" as="targetPoint" />
          </mxGeometry>
        </mxCell>
        <mxCell id="uA8NmA-oKsk3m7tWYpye-6" value="Input temp1" style="shape=parallelogram;perimeter=parallelogramPerimeter;whiteSpace=wrap;html=1;fixedSize=1;" vertex="1" parent="1">
          <mxGeometry x="75" y="310" width="120" height="60" as="geometry" />
        </mxCell>
        <mxCell id="uA8NmA-oKsk3m7tWYpye-10" style="edgeStyle=orthogonalEdgeStyle;rounded=0;orthogonalLoop=1;jettySize=auto;html=1;" edge="1" parent="1" source="uA8NmA-oKsk3m7tWYpye-9">
          <mxGeometry relative="1" as="geometry">
            <mxPoint x="135" y="510" as="targetPoint" />
          </mxGeometry>
        </mxCell>
        <mxCell id="uA8NmA-oKsk3m7tWYpye-9" value="a[i]=temp1&lt;br&gt;ai[i]=a[i]-&#39;0&#39;" style="rounded=0;whiteSpace=wrap;html=1;" vertex="1" parent="1">
          <mxGeometry x="75" y="410" width="120" height="60" as="geometry" />
        </mxCell>
        <mxCell id="uA8NmA-oKsk3m7tWYpye-12" style="edgeStyle=orthogonalEdgeStyle;rounded=0;orthogonalLoop=1;jettySize=auto;html=1;exitX=0;exitY=0.5;exitDx=0;exitDy=0;" edge="1" parent="1" source="uA8NmA-oKsk3m7tWYpye-11">
          <mxGeometry relative="1" as="geometry">
            <mxPoint x="135" y="293" as="targetPoint" />
            <mxPoint x="70.04642857142835" y="553.0285714285714" as="sourcePoint" />
            <Array as="points">
              <mxPoint y="550" />
              <mxPoint y="293" />
            </Array>
          </mxGeometry>
        </mxCell>
        <mxCell id="uA8NmA-oKsk3m7tWYpye-14" value="i++" style="edgeLabel;html=1;align=center;verticalAlign=middle;resizable=0;points=[];" connectable="0" vertex="1" parent="uA8NmA-oKsk3m7tWYpye-12">
          <mxGeometry x="-0.1558" relative="1" as="geometry">
            <mxPoint as="offset" />
          </mxGeometry>
        </mxCell>
        <mxCell id="uA8NmA-oKsk3m7tWYpye-15" value="Yes" style="edgeLabel;html=1;align=center;verticalAlign=middle;resizable=0;points=[];" connectable="0" vertex="1" parent="uA8NmA-oKsk3m7tWYpye-12">
          <mxGeometry x="-0.8411" relative="1" as="geometry">
            <mxPoint as="offset" />
          </mxGeometry>
        </mxCell>
        <mxCell id="uA8NmA-oKsk3m7tWYpye-11" value="i&amp;lt;n?" style="rhombus;whiteSpace=wrap;html=1;" vertex="1" parent="1">
          <mxGeometry x="70" y="510" width="130" height="80" as="geometry" />
        </mxCell>
        <mxCell id="uA8NmA-oKsk3m7tWYpye-18" value="" style="endArrow=none;html=1;rounded=0;entryX=0.5;entryY=1;entryDx=0;entryDy=0;" edge="1" parent="1" target="uA8NmA-oKsk3m7tWYpye-11">
          <mxGeometry width="50" height="50" relative="1" as="geometry">
            <mxPoint x="135" y="640" as="sourcePoint" />
            <mxPoint x="140" y="600" as="targetPoint" />
          </mxGeometry>
        </mxCell>
        <mxCell id="uA8NmA-oKsk3m7tWYpye-19" value="No" style="edgeLabel;html=1;align=center;verticalAlign=middle;resizable=0;points=[];" connectable="0" vertex="1" parent="uA8NmA-oKsk3m7tWYpye-18">
          <mxGeometry x="0.1543" relative="1" as="geometry">
            <mxPoint as="offset" />
          </mxGeometry>
        </mxCell>
        <mxCell id="uA8NmA-oKsk3m7tWYpye-20" value="1" style="ellipse;whiteSpace=wrap;html=1;aspect=fixed;" vertex="1" parent="1">
          <mxGeometry x="125" y="640" width="20" height="20" as="geometry" />
        </mxCell>
        <mxCell id="uA8NmA-oKsk3m7tWYpye-22" style="edgeStyle=orthogonalEdgeStyle;rounded=0;orthogonalLoop=1;jettySize=auto;html=1;" edge="1" parent="1" source="uA8NmA-oKsk3m7tWYpye-21">
          <mxGeometry relative="1" as="geometry">
            <mxPoint x="360" y="120.00000000000006" as="targetPoint" />
          </mxGeometry>
        </mxCell>
        <mxCell id="uA8NmA-oKsk3m7tWYpye-21" value="1" style="ellipse;whiteSpace=wrap;html=1;aspect=fixed;" vertex="1" parent="1">
          <mxGeometry x="350" y="35" width="20" height="20" as="geometry" />
        </mxCell>
        <mxCell id="uA8NmA-oKsk3m7tWYpye-23" style="edgeStyle=orthogonalEdgeStyle;rounded=0;orthogonalLoop=1;jettySize=auto;html=1;entryX=0.5;entryY=0;entryDx=0;entryDy=0;" edge="1" parent="1" source="uA8NmA-oKsk3m7tWYpye-24" target="uA8NmA-oKsk3m7tWYpye-26">
          <mxGeometry relative="1" as="geometry" />
        </mxCell>
        <mxCell id="uA8NmA-oKsk3m7tWYpye-24" value="int i = 0" style="rounded=0;whiteSpace=wrap;html=1;" vertex="1" parent="1">
          <mxGeometry x="300.03" y="120" width="120" height="60" as="geometry" />
        </mxCell>
        <mxCell id="uA8NmA-oKsk3m7tWYpye-25" style="edgeStyle=orthogonalEdgeStyle;rounded=0;orthogonalLoop=1;jettySize=auto;html=1;" edge="1" parent="1" source="uA8NmA-oKsk3m7tWYpye-26">
          <mxGeometry relative="1" as="geometry">
            <mxPoint x="360.03" y="310" as="targetPoint" />
          </mxGeometry>
        </mxCell>
        <mxCell id="uA8NmA-oKsk3m7tWYpye-26" value="Input temp2" style="shape=parallelogram;perimeter=parallelogramPerimeter;whiteSpace=wrap;html=1;fixedSize=1;" vertex="1" parent="1">
          <mxGeometry x="300.03" y="210" width="120" height="60" as="geometry" />
        </mxCell>
        <mxCell id="uA8NmA-oKsk3m7tWYpye-27" style="edgeStyle=orthogonalEdgeStyle;rounded=0;orthogonalLoop=1;jettySize=auto;html=1;" edge="1" parent="1" source="uA8NmA-oKsk3m7tWYpye-28">
          <mxGeometry relative="1" as="geometry">
            <mxPoint x="360.03" y="410" as="targetPoint" />
          </mxGeometry>
        </mxCell>
        <mxCell id="uA8NmA-oKsk3m7tWYpye-28" value="b[i]=temp2&lt;br&gt;bi[i]=b[i]-&#39;0&#39;" style="rounded=0;whiteSpace=wrap;html=1;" vertex="1" parent="1">
          <mxGeometry x="300.03" y="310" width="120" height="60" as="geometry" />
        </mxCell>
        <mxCell id="uA8NmA-oKsk3m7tWYpye-29" style="edgeStyle=orthogonalEdgeStyle;rounded=0;orthogonalLoop=1;jettySize=auto;html=1;exitX=0;exitY=0.5;exitDx=0;exitDy=0;" edge="1" parent="1" source="uA8NmA-oKsk3m7tWYpye-32">
          <mxGeometry relative="1" as="geometry">
            <mxPoint x="360.03" y="193" as="targetPoint" />
            <mxPoint x="295.0764285714283" y="453.02857142857135" as="sourcePoint" />
            <Array as="points">
              <mxPoint x="225.03" y="450" />
              <mxPoint x="225.03" y="193" />
            </Array>
          </mxGeometry>
        </mxCell>
        <mxCell id="uA8NmA-oKsk3m7tWYpye-30" value="i++" style="edgeLabel;html=1;align=center;verticalAlign=middle;resizable=0;points=[];" connectable="0" vertex="1" parent="uA8NmA-oKsk3m7tWYpye-29">
          <mxGeometry x="-0.1558" relative="1" as="geometry">
            <mxPoint as="offset" />
          </mxGeometry>
        </mxCell>
        <mxCell id="uA8NmA-oKsk3m7tWYpye-31" value="Yes" style="edgeLabel;html=1;align=center;verticalAlign=middle;resizable=0;points=[];" connectable="0" vertex="1" parent="uA8NmA-oKsk3m7tWYpye-29">
          <mxGeometry x="-0.8411" relative="1" as="geometry">
            <mxPoint as="offset" />
          </mxGeometry>
        </mxCell>
        <mxCell id="uA8NmA-oKsk3m7tWYpye-32" value="i&amp;lt;n?" style="rhombus;whiteSpace=wrap;html=1;" vertex="1" parent="1">
          <mxGeometry x="295.03" y="410" width="130" height="80" as="geometry" />
        </mxCell>
        <mxCell id="uA8NmA-oKsk3m7tWYpye-33" value="" style="endArrow=none;html=1;rounded=0;entryX=0.5;entryY=1;entryDx=0;entryDy=0;" edge="1" parent="1" target="uA8NmA-oKsk3m7tWYpye-32">
          <mxGeometry width="50" height="50" relative="1" as="geometry">
            <mxPoint x="360.03" y="540" as="sourcePoint" />
            <mxPoint x="365.03" y="500" as="targetPoint" />
          </mxGeometry>
        </mxCell>
        <mxCell id="uA8NmA-oKsk3m7tWYpye-34" value="No" style="edgeLabel;html=1;align=center;verticalAlign=middle;resizable=0;points=[];" connectable="0" vertex="1" parent="uA8NmA-oKsk3m7tWYpye-33">
          <mxGeometry x="0.1543" relative="1" as="geometry">
            <mxPoint as="offset" />
          </mxGeometry>
        </mxCell>
        <mxCell id="uA8NmA-oKsk3m7tWYpye-35" value="2" style="ellipse;whiteSpace=wrap;html=1;aspect=fixed;" vertex="1" parent="1">
          <mxGeometry x="350.03" y="540" width="20" height="20" as="geometry" />
        </mxCell>
        <mxCell id="uA8NmA-oKsk3m7tWYpye-37" style="edgeStyle=orthogonalEdgeStyle;rounded=0;orthogonalLoop=1;jettySize=auto;html=1;" edge="1" parent="1" source="uA8NmA-oKsk3m7tWYpye-36">
          <mxGeometry relative="1" as="geometry">
            <mxPoint x="560" y="120.00000000000006" as="targetPoint" />
          </mxGeometry>
        </mxCell>
        <mxCell id="uA8NmA-oKsk3m7tWYpye-36" value="2" style="ellipse;whiteSpace=wrap;html=1;aspect=fixed;" vertex="1" parent="1">
          <mxGeometry x="550" y="35" width="20" height="20" as="geometry" />
        </mxCell>
        <mxCell id="uA8NmA-oKsk3m7tWYpye-39" style="edgeStyle=orthogonalEdgeStyle;rounded=0;orthogonalLoop=1;jettySize=auto;html=1;" edge="1" parent="1" source="uA8NmA-oKsk3m7tWYpye-38" target="uA8NmA-oKsk3m7tWYpye-40">
          <mxGeometry relative="1" as="geometry">
            <mxPoint x="560" y="240" as="targetPoint" />
            <Array as="points">
              <mxPoint x="560" y="200" />
              <mxPoint x="560" y="200" />
            </Array>
          </mxGeometry>
        </mxCell>
        <mxCell id="uA8NmA-oKsk3m7tWYpye-38" value="int i = 0" style="rounded=0;whiteSpace=wrap;html=1;" vertex="1" parent="1">
          <mxGeometry x="500" y="120" width="120" height="60" as="geometry" />
        </mxCell>
        <mxCell id="uA8NmA-oKsk3m7tWYpye-44" style="edgeStyle=orthogonalEdgeStyle;rounded=0;orthogonalLoop=1;jettySize=auto;html=1;" edge="1" parent="1" source="uA8NmA-oKsk3m7tWYpye-40">
          <mxGeometry relative="1" as="geometry">
            <mxPoint x="560" y="390" as="targetPoint" />
          </mxGeometry>
        </mxCell>
        <mxCell id="uA8NmA-oKsk3m7tWYpye-45" value="Yes" style="edgeLabel;html=1;align=center;verticalAlign=middle;resizable=0;points=[];" connectable="0" vertex="1" parent="uA8NmA-oKsk3m7tWYpye-44">
          <mxGeometry x="-0.1709" y="2" relative="1" as="geometry">
            <mxPoint x="-3" y="1" as="offset" />
          </mxGeometry>
        </mxCell>
        <mxCell id="uA8NmA-oKsk3m7tWYpye-40" value="ai[i]==1?" style="rhombus;whiteSpace=wrap;html=1;" vertex="1" parent="1">
          <mxGeometry x="500" y="240" width="120" height="80" as="geometry" />
        </mxCell>
        <mxCell id="uA8NmA-oKsk3m7tWYpye-53" style="edgeStyle=orthogonalEdgeStyle;rounded=0;orthogonalLoop=1;jettySize=auto;html=1;" edge="1" parent="1" source="uA8NmA-oKsk3m7tWYpye-46">
          <mxGeometry relative="1" as="geometry">
            <mxPoint x="560" y="510" as="targetPoint" />
          </mxGeometry>
        </mxCell>
        <mxCell id="uA8NmA-oKsk3m7tWYpye-65" value="No" style="edgeLabel;html=1;align=center;verticalAlign=middle;resizable=0;points=[];" connectable="0" vertex="1" parent="uA8NmA-oKsk3m7tWYpye-53">
          <mxGeometry x="-0.2298" relative="1" as="geometry">
            <mxPoint x="-1" as="offset" />
          </mxGeometry>
        </mxCell>
        <mxCell id="uA8NmA-oKsk3m7tWYpye-54" style="edgeStyle=orthogonalEdgeStyle;rounded=0;orthogonalLoop=1;jettySize=auto;html=1;" edge="1" parent="1" source="uA8NmA-oKsk3m7tWYpye-46">
          <mxGeometry relative="1" as="geometry">
            <mxPoint x="690" y="430" as="targetPoint" />
          </mxGeometry>
        </mxCell>
        <mxCell id="uA8NmA-oKsk3m7tWYpye-55" value="Yes" style="edgeLabel;html=1;align=center;verticalAlign=middle;resizable=0;points=[];" connectable="0" vertex="1" parent="uA8NmA-oKsk3m7tWYpye-54">
          <mxGeometry x="-0.1979" y="2" relative="1" as="geometry">
            <mxPoint as="offset" />
          </mxGeometry>
        </mxCell>
        <mxCell id="uA8NmA-oKsk3m7tWYpye-46" value="ai[i]==bi[i]?" style="rhombus;whiteSpace=wrap;html=1;" vertex="1" parent="1">
          <mxGeometry x="500" y="390" width="120" height="80" as="geometry" />
        </mxCell>
        <mxCell id="uA8NmA-oKsk3m7tWYpye-58" style="edgeStyle=orthogonalEdgeStyle;rounded=0;orthogonalLoop=1;jettySize=auto;html=1;" edge="1" parent="1" source="uA8NmA-oKsk3m7tWYpye-57">
          <mxGeometry relative="1" as="geometry">
            <mxPoint x="560" y="220" as="targetPoint" />
            <Array as="points">
              <mxPoint x="460" y="550" />
              <mxPoint x="460" y="220" />
              <mxPoint x="500" y="220" />
            </Array>
          </mxGeometry>
        </mxCell>
        <mxCell id="uA8NmA-oKsk3m7tWYpye-59" value="Yes" style="edgeLabel;html=1;align=center;verticalAlign=middle;resizable=0;points=[];" connectable="0" vertex="1" parent="uA8NmA-oKsk3m7tWYpye-58">
          <mxGeometry x="-0.8868" relative="1" as="geometry">
            <mxPoint as="offset" />
          </mxGeometry>
        </mxCell>
        <mxCell id="uA8NmA-oKsk3m7tWYpye-60" value="i++" style="edgeLabel;html=1;align=center;verticalAlign=middle;resizable=0;points=[];" connectable="0" vertex="1" parent="uA8NmA-oKsk3m7tWYpye-58">
          <mxGeometry x="0.0356" relative="1" as="geometry">
            <mxPoint as="offset" />
          </mxGeometry>
        </mxCell>
        <mxCell id="uA8NmA-oKsk3m7tWYpye-66" style="edgeStyle=orthogonalEdgeStyle;rounded=0;orthogonalLoop=1;jettySize=auto;html=1;" edge="1" parent="1" source="uA8NmA-oKsk3m7tWYpye-57">
          <mxGeometry relative="1" as="geometry">
            <mxPoint x="690" y="550" as="targetPoint" />
          </mxGeometry>
        </mxCell>
        <mxCell id="uA8NmA-oKsk3m7tWYpye-67" value="No" style="edgeLabel;html=1;align=center;verticalAlign=middle;resizable=0;points=[];" connectable="0" vertex="1" parent="uA8NmA-oKsk3m7tWYpye-66">
          <mxGeometry x="-0.0546" y="3" relative="1" as="geometry">
            <mxPoint x="-8" y="3" as="offset" />
          </mxGeometry>
        </mxCell>
        <mxCell id="uA8NmA-oKsk3m7tWYpye-57" value="i&amp;lt;n?" style="rhombus;whiteSpace=wrap;html=1;" vertex="1" parent="1">
          <mxGeometry x="500" y="510" width="120" height="80" as="geometry" />
        </mxCell>
        <mxCell id="uA8NmA-oKsk3m7tWYpye-63" style="edgeStyle=orthogonalEdgeStyle;rounded=0;orthogonalLoop=1;jettySize=auto;html=1;" edge="1" parent="1" source="uA8NmA-oKsk3m7tWYpye-62">
          <mxGeometry relative="1" as="geometry">
            <mxPoint x="810" y="430" as="targetPoint" />
          </mxGeometry>
        </mxCell>
        <mxCell id="uA8NmA-oKsk3m7tWYpye-62" value="Output &quot;Yes&quot;" style="shape=parallelogram;perimeter=parallelogramPerimeter;whiteSpace=wrap;html=1;fixedSize=1;" vertex="1" parent="1">
          <mxGeometry x="680" y="410" width="100" height="40" as="geometry" />
        </mxCell>
        <mxCell id="uA8NmA-oKsk3m7tWYpye-64" value="End" style="ellipse;whiteSpace=wrap;html=1;" vertex="1" parent="1">
          <mxGeometry x="810" y="395" width="110" height="70" as="geometry" />
        </mxCell>
        <mxCell id="uA8NmA-oKsk3m7tWYpye-68" style="edgeStyle=orthogonalEdgeStyle;rounded=0;orthogonalLoop=1;jettySize=auto;html=1;" edge="1" parent="1" source="uA8NmA-oKsk3m7tWYpye-69">
          <mxGeometry relative="1" as="geometry">
            <mxPoint x="810" y="550" as="targetPoint" />
          </mxGeometry>
        </mxCell>
        <mxCell id="uA8NmA-oKsk3m7tWYpye-69" value="Output &quot;No&quot;" style="shape=parallelogram;perimeter=parallelogramPerimeter;whiteSpace=wrap;html=1;fixedSize=1;" vertex="1" parent="1">
          <mxGeometry x="680" y="530" width="100" height="40" as="geometry" />
        </mxCell>
        <mxCell id="uA8NmA-oKsk3m7tWYpye-70" value="End" style="ellipse;whiteSpace=wrap;html=1;" vertex="1" parent="1">
          <mxGeometry x="810" y="515" width="110" height="70" as="geometry" />
        </mxCell>
        <mxCell id="uA8NmA-oKsk3m7tWYpye-72" value="" style="endArrow=none;html=1;rounded=0;" edge="1" parent="1">
          <mxGeometry width="50" height="50" relative="1" as="geometry">
            <mxPoint x="480" y="460" as="sourcePoint" />
            <mxPoint x="500" y="280" as="targetPoint" />
            <Array as="points">
              <mxPoint x="480" y="280" />
            </Array>
          </mxGeometry>
        </mxCell>
        <mxCell id="uA8NmA-oKsk3m7tWYpye-74" value="No" style="edgeLabel;html=1;align=center;verticalAlign=middle;resizable=0;points=[];" connectable="0" vertex="1" parent="uA8NmA-oKsk3m7tWYpye-72">
          <mxGeometry x="-0.559" y="-1" relative="1" as="geometry">
            <mxPoint x="-1" as="offset" />
          </mxGeometry>
        </mxCell>
        <mxCell id="uA8NmA-oKsk3m7tWYpye-73" value="" style="endArrow=classic;html=1;rounded=0;" edge="1" parent="1" target="uA8NmA-oKsk3m7tWYpye-57">
          <mxGeometry width="50" height="50" relative="1" as="geometry">
            <mxPoint x="480" y="460" as="sourcePoint" />
            <mxPoint x="530" y="410" as="targetPoint" />
          </mxGeometry>
        </mxCell>
      </root>
    </mxGraphModel>
  </diagram>
</mxfile>
